HIERARCHY
ROOT hip
{
  OFFSET 0 0 0
  CHANNELS 6 Xposition Yposition Zposition Zrotation Yrotation Xrotation
  JOINT abdomen
  {
    OFFSET 0 20.6881 -0.73152
    CHANNELS 3 Zrotation Xrotation Yrotation
    JOINT chest
    {
      OFFSET 0 11.7043 -0.48768
      CHANNELS 3 Zrotation Xrotation Yrotation
      JOINT neck
      {
        OFFSET 0 22.1894 -2.19456
        CHANNELS 3 Zrotation Xrotation Yrotation
        JOINT head
        {
          OFFSET -0.24384 7.07133 1.2192
          CHANNELS 3 Zrotation Xrotation Yrotation
          JOINT leftEye
          {
            OFFSET 4.14528 8.04674 8.04672
            CHANNELS 3 Zrotation Xrotation Yrotation
            End Site
            {
              OFFSET 1 0 0
            }
          }
          JOINT rightEye
          {
            OFFSET -3.6576 8.04674 8.04672
            CHANNELS 3 Zrotation Xrotation Yrotation
            End Site
            {
              OFFSET 1 0 0
            }
          }
        }
      }
      JOINT rCollar
      {
        OFFSET -2.68224 19.2634 -4.8768
        CHANNELS 3 Zrotation Xrotation Yrotation
        JOINT rShldr
        {
          OFFSET -8.77824 -1.95073 1.46304
          CHANNELS 3 Zrotation Xrotation Yrotation
          JOINT rForeArm
          {
            OFFSET -28.1742 -1.7115 0.48768
            CHANNELS 3 Zrotation Xrotation Yrotation
            JOINT rHand
            {
              OFFSET -22.5879 0.773209 7.07136
              CHANNELS 3 Zrotation Xrotation Yrotation
              JOINT rThumb1
              {
                OFFSET -1.2192 -0.487915 3.41376
                CHANNELS 3 Zrotation Xrotation Yrotation
                JOINT rThumb2
                {
                  OFFSET -3.37035 -0.52449 3.41376
                  CHANNELS 3 Zrotation Xrotation Yrotation
                  End Site
                  {
                    OFFSET -1.78271 -1.18214 1.43049
                  }
                }
              }
              JOINT rIndex1
              {
                OFFSET -7.75947 0.938293 5.60832
                CHANNELS 3 Zrotation Xrotation Yrotation
                JOINT rIndex2
                {
                  OFFSET -2.54057 -0.884171 1.56538
                  CHANNELS 3 Zrotation Xrotation Yrotation
                  End Site
                  {
                    OFFSET -1.62519 -0.234802 1.16502
                  }
                }
              }
              JOINT rMid1
              {
                OFFSET -8.24714 1.18213 3.41376
                CHANNELS 3 Zrotation Xrotation Yrotation
                JOINT rMid2
                {
                  OFFSET -3.10165 -0.590103 1.0647
                  CHANNELS 3 Zrotation Xrotation Yrotation
                  End Site
                  {
                    OFFSET -2.48547 -0.328903 0.83742
                  }
                }
              }
              JOINT rRing1
              {
                OFFSET -8.82822 0.546677 1.51678
                CHANNELS 3 Zrotation Xrotation Yrotation
                JOINT rRing2
                {
                  OFFSET -2.60934 -0.819778 -0.0198488
                  CHANNELS 3 Zrotation Xrotation Yrotation
                  End Site
                  {
                    OFFSET -2.33842 -0.294052 0.168128
                  }
                }
              }
              JOINT rPinky1
              {
                OFFSET -8.27202 -0.0477905 -0.4584
                CHANNELS 3 Zrotation Xrotation Yrotation
                JOINT rPinky2
                {
                  OFFSET -1.82734 -0.647385 -0.700984
                  CHANNELS 3 Zrotation Xrotation Yrotation
                  End Site
                  {
                    OFFSET -1.69225 -0.51767 -0.607171
                  }
                }
              }
            }
          }
        }
      }
      JOINT lCollar
      {
        OFFSET 2.68224 19.2634 -4.8768
        CHANNELS 3 Zrotation Xrotation Yrotation
        JOINT lShldr
        {
          OFFSET 8.77824 -1.95073 1.46304
          CHANNELS 3 Zrotation Xrotation Yrotation
          JOINT lForeArm
          {
            OFFSET 28.1742 -1.7115 0.48768
            CHANNELS 3 Zrotation Xrotation Yrotation
            JOINT lHand
            {
              OFFSET 22.5879 0.773209 7.07136
              CHANNELS 3 Zrotation Xrotation Yrotation
              JOINT lThumb1
              {
                OFFSET 1.2192 -0.487915 3.41376
                CHANNELS 3 Zrotation Xrotation Yrotation
                JOINT lThumb2
                {
                  OFFSET 3.37035 -0.52449 3.41376
                  CHANNELS 3 Zrotation Xrotation Yrotation
                  End Site
                  {
                    OFFSET 1.78271 -1.18214 1.43049
                  }
                }
              }
              JOINT lIndex1
              {
                OFFSET 7.75947 0.938293 5.60832
                CHANNELS 3 Zrotation Xrotation Yrotation
                JOINT lIndex2
                {
                  OFFSET 2.54057 -0.884171 1.56538
                  CHANNELS 3 Zrotation Xrotation Yrotation
                  End Site
                  {
                    OFFSET 1.62519 -0.234802 1.16502
                  }
                }
              }
              JOINT lMid1
              {
                OFFSET 8.24714 1.18213 3.41376
                CHANNELS 3 Zrotation Xrotation Yrotation
                JOINT lMid2
                {
                  OFFSET 3.10165 -0.590103 1.0647
                  CHANNELS 3 Zrotation Xrotation Yrotation
                  End Site
                  {
                    OFFSET 2.48547 -0.328903 0.83742
                  }
                }
              }
              JOINT lRing1
              {
                OFFSET 8.82822 0.546677 1.51678
                CHANNELS 3 Zrotation Xrotation Yrotation
                JOINT lRing2
                {
                  OFFSET 2.60934 -0.819778 -0.0198488
                  CHANNELS 3 Zrotation Xrotation Yrotation
                  End Site
                  {
                    OFFSET 2.33842 -0.294052 0.168128
                  }
                }
              }
              JOINT lPinky1
              {
                OFFSET 8.27202 -0.0477905 -0.4584
                CHANNELS 3 Zrotation Xrotation Yrotation
                JOINT lPinky2
                {
                  OFFSET 1.82734 -0.647385 -0.700984
                  CHANNELS 3 Zrotation Xrotation Yrotation
                  End Site
                  {
                    OFFSET 1.69225 -0.51767 -0.607171
                  }
                }
              }
            }
          }
        }
      }
    }
  }
  JOINT rButtock
  {
    OFFSET -8.77824 4.35084 1.2192
    CHANNELS 3 Zrotation Xrotation Yrotation
    JOINT rThigh
    {
      OFFSET 0 -1.70687 -2.19456
      CHANNELS 3 Zrotation Xrotation Yrotation
      JOINT rShin
      {
        OFFSET 0 -36.8199 0.73152
        CHANNELS 3 Zrotation Xrotation Yrotation
        JOINT rFoot
        {
          OFFSET 0.73152 -45.1104 -5.12064
          CHANNELS 3 Zrotation Xrotation Yrotation
          End Site
          {
            OFFSET -1.1221 -3.69964 12.103
          }
        }
      }
    }
  }
  JOINT lButtock
  {
    OFFSET 8.77824 4.35084 1.2192
    CHANNELS 3 Zrotation Xrotation Yrotation
    JOINT lThigh
    {
      OFFSET 0 -1.70687 -2.19456
      CHANNELS 3 Zrotation Xrotation Yrotation
      JOINT lShin
      {
        OFFSET 0 -36.8199 0.73152
        CHANNELS 3 Zrotation Xrotation Yrotation
        JOINT lFoot
        {
          OFFSET -0.73152 -45.1104 -5.12064
          CHANNELS 3 Zrotation Xrotation Yrotation
          End Site
          {
            OFFSET 1.1221 -3.69964 12.103
          }
        }
      }
    }
  }
}
MOTION
Frames:	4
Frame Time:	0.03333
0.006703606388032708 38.9329388729081 0.0011459155613133837 0.24879997968673706 13.123799324035645 6.187499523162842 -9.94102954864502 7.841569900512695 -11.385398864746094 8.703439712524414 -6.517590045928955 -2.8873798847198486 -9.380270004272461 24.69820213317871 -19.68180274963379 19.429298400878906 -22.40049934387207 -35.41489791870117 -0.0 0.0 -0.0 -0.0 0.0 -0.0 3.816665408197528e-14 1.2722218027325094e-13 -4.579998489837034e-13 65.4699935913086 35.84250259399414 -2.517239809036255 -18.03569793701172 -10.725199699401855 34.100494384765625 -0.0032996998634189367 1.6399799585342407 0.23054800927639008 1.113295899912714e-09 -5.391039836766254e-10 -6.502771099370364e-10 1.921105718949434e-09 -9.262156597245053e-10 -1.1302291325065994e-09 1.1133085564551948e-09 -5.391039836766254e-10 -6.502707261546448e-10 7.7309088706970215 5.474880218505859 0.41731396317481995 1.113295899912714e-09 -5.391166957302573e-10 -6.502643423722532e-10 2.9055399894714355 0.9651829600334167 0.10290198773145676 1.113295899912714e-09 -5.391039836766254e-10 -6.502707261546448e-10 10.27859878540039 0.73180091381073 0.025912299752235413 1.1132831323479309e-09 -5.391039836766254e-10 -6.502580141010128e-10 2.2216696739196777 -0.7334870100021362 -0.2089199721813202 3.816665408197528e-14 1.2722218027325094e-13 -4.579998489837034e-13 -74.24429321289062 33.042701721191406 -7.347720623016357 17.544597625732422 -10.205299377441406 -33.00649642944336 0.08681619167327881 8.375489234924316 -1.1856399774551392 1.6495628196722123e-09 3.3309692781813283e-09 7.465079665536223e-10 2.857779124454396e-09 5.753254317397705e-09 1.278621097888788e-09 1.6495628196722123e-09 3.3309566216388475e-09 7.465206786072542e-10 -7.7309088706970215 5.474880218505859 -0.41731396317481995 1.6495628196722123e-09 3.330943743051762e-09 7.465079665536223e-10 -2.9055399894714355 0.9651829600334167 -0.10290198773145676 1.6495500521074291e-09 3.3309566216388475e-09 7.465142948248626e-10 -10.27859878540039 0.73180091381073 -0.025912299752235413 1.649575476214693e-09 3.3309566216388475e-09 7.465079665536223e-10 -2.2216696739196777 -0.7334870100021362 0.2089199721813202 -0.0 0.0 -0.0 -34.45050048828125 -63.220699310302734 -30.632596969604492 -2.027750015258789 70.27979278564453 2.6541194915771484 2.6791396141052246 -7.090269565582275 14.301199913024902 -0.0 0.0 -0.0 4.622289657592773 8.123429298400879 3.6041197776794434 -0.05172336846590042 35.93110275268555 -2.3206899166107178 23.662296295166016 -21.137401580810547 42.156097412109375
0.012204001415842282 38.931221080331845 0.0011459155613133837 0.22049999237060547 13.181599617004395 6.177199840545654 -9.90512752532959 7.863190650939941 -11.362898826599121 8.725879669189453 -6.511020183563232 -2.880280017852783 -9.3595609664917 24.749500274658203 -19.675899505615234 19.45059585571289 -22.46889877319336 -35.397003173828125 -0.0 0.0 -0.0 -0.0 0.0 -0.0 1.2722218027325094e-14 1.3994439830057603e-13 -4.389165354952429e-13 65.56968688964844 35.732601165771484 -2.6066699028015137 -17.969799041748047 -10.654200553894043 33.95249938964844 -0.003237758995965123 1.6241198778152466 0.228316992521286 1.415041417374141e-09 -9.680845014514716e-10 -5.922701218352699e-10 2.4430730771740627e-09 -1.6682389913924567e-09 -1.0306395736847662e-09 1.415041417374141e-09 -9.680717338866884e-10 -5.922765056176615e-10 7.7309088706970215 5.474880218505859 0.41731396317481995 1.415041417374141e-09 -9.680845014514716e-10 -5.922701218352699e-10 2.9055399894714355 0.9651829600334167 0.10290198773145676 1.415041417374141e-09 -9.680717338866884e-10 -5.922701218352699e-10 10.27859878540039 0.73180091381073 0.025912299752235413 1.4150286498093578e-09 -9.680717338866884e-10 -5.92257409781638e-10 2.2216696739196777 -0.7334870100021362 -0.2089199721813202 1.2722218027325094e-14 1.3994439830057603e-13 -4.389165354952429e-13 -74.29290008544922 33.070899963378906 -7.3148298263549805 17.533597946166992 -10.193900108337402 -32.982303619384766 0.08749109506607056 8.4076509475708 -1.1902599334716797 2.0223365204685706e-09 4.052382873709348e-09 9.71818403527891e-10 3.50424600448207e-09 7.000005908253115e-09 1.665471871525881e-09 2.0223365204685706e-09 4.052382873709348e-09 9.718248428214338e-10 -7.7309088706970215 5.474880218505859 -0.41731396317481995 2.0223365204685706e-09 4.0523699951222625e-09 9.71818403527891e-10 -2.9055399894714355 0.9651829600334167 -0.10290198773145676 2.02232386392609e-09 4.052382873709348e-09 9.71818403527891e-10 -10.27859878540039 0.73180091381073 -0.025912299752235413 2.0223365204685706e-09 4.052382873709348e-09 9.718120752566506e-10 -2.2216696739196777 -0.7334870100021362 0.2089199721813202 -0.0 0.0 -0.0 -34.494197845458984 -63.18779754638672 -30.71409797668457 -2.0263102054595947 70.28079986572266 2.65231990814209 2.6747798919677734 -7.070809841156006 14.30479907989502 -0.0 0.0 -0.0 4.666719913482666 8.103150367736816 3.572239875793457 -0.05442434176802635 35.95289993286133 -2.322540283203125 23.666696548461914 -21.114301681518555 42.18109893798828
0.021944283895446875 38.92950328775559 0.0 0.20329998433589935 13.228499412536621 6.172399997711182 -9.894309043884277 7.895589828491211 -11.333698272705078 8.74984073638916 -6.502559661865234 -2.8720500469207764 -9.343729972839355 24.782699584960938 -19.669801712036133 19.48379898071289 -22.52549934387207 -35.37519836425781 -0.0 0.0 -0.0 -0.0 0.0 -0.0 -2.5444436054650188e-14 1.5266661632790113e-13 -2.608054831126916e-13 65.66780090332031 35.6348991394043 -2.6862099170684814 -17.901098251342773 -10.580700874328613 33.79859924316406 -0.0031030098907649517 1.5903700590133667 0.22356897592544556 1.2699318263642567e-09 -1.0277898532251584e-09 -3.5418654120711324e-10 2.1928523441516745e-09 -1.7728537526906507e-09 -6.178672573575739e-10 1.2699190587994735e-09 -1.0277644291178945e-09 -3.541992810163208e-10 7.7309088706970215 5.474880218505859 0.41731396317481995 1.2699190587994735e-09 -1.0277770856603752e-09 -3.541928972339292e-10 2.9055399894714355 0.9651829600334167 0.10290198773145676 1.2699318263642567e-09 -1.0277770856603752e-09 -3.5418018518029726e-10 10.27859878540039 0.73180091381073 0.025912299752235413 1.2699190587994735e-09 -1.0277770856603752e-09 -3.541738291534813e-10 2.2216696739196777 -0.7334870100021362 -0.2089199721813202 -2.5444436054650188e-14 1.5266661632790113e-13 -2.608054831126916e-13 -74.33499145507812 33.08109664916992 -7.285459518432617 17.529998779296875 -10.190200805664062 -32.97419738769531 0.0879444032907486 8.429250717163086 -1.1933600902557373 1.7900033677520355e-09 3.7240222017231872e-09 1.0424776597517393e-09 3.1034579350830427e-09 6.435533883575317e-09 1.7897171522562871e-09 1.7900033677520355e-09 3.7240222017231872e-09 1.04249031629422e-09 -7.7309088706970215 5.474880218505859 -0.41731396317481995 1.7900033677520355e-09 3.7240222017231872e-09 1.04249031629422e-09 -2.9055399894714355 0.9651829600334167 -0.10290198773145676 1.7899906001872523e-09 3.7240222017231872e-09 1.0424776597517393e-09 -10.27859878540039 0.73180091381073 -0.025912299752235413 1.7900160242945162e-09 3.7240222017231872e-09 1.0424712204581965e-09 -2.2216696739196777 -0.7334870100021362 0.2089199721813202 -0.0 0.0 -0.0 -34.561500549316406 -63.15180206298828 -30.80049705505371 -2.0259299278259277 70.28910064697266 2.654639959335327 2.671419858932495 -7.055019378662109 14.305397987365723 -0.0 0.0 -0.0 4.694169521331787 8.08966064453125 3.547459840774536 -0.05617670714855194 35.97249984741211 -2.3242099285125732 23.663801193237305 -21.091598510742188 42.19719696044922
0.03271589075542701 38.928355815975024 0.0028647889032834594 0.22609998285770416 13.24799919128418 6.174999237060547 -9.913418769836426 7.94726037979126 -11.281800270080566 8.770309448242188 -6.479209899902344 -2.8595900535583496 -9.329349517822266 24.7450008392334 -19.677797317504883 19.5033016204834 -22.522300720214844 -35.373897552490234 -0.0 0.0 -0.0 -0.0 0.0 -0.0 -5.0888872109300376e-14 2.417221425191768e-13 6.997219915028802e-14 65.77449798583984 35.5255012512207 -2.757159948348999 -17.82809829711914 -10.50309944152832 33.63579559326172 -0.0031496889423578978 1.601409912109375 0.22512300312519073 2.194582536529932e-11 5.042705697455574e-10 -1.0974185449263985e-10 3.311593360644238e-11 8.767516712637757e-10 -1.9118949479146607e-10 2.194582536529932e-11 5.042832817991894e-10 -1.0974821051945582e-10 7.7309088706970215 5.474880218505859 0.41731396317481995 2.194582536529932e-11 5.042832817991894e-10 -1.0974185449263985e-10 2.9055399894714355 0.9651829600334167 0.10290198773145676 2.194582536529932e-11 5.042832817991894e-10 -1.0974185449263985e-10 10.27859878540039 0.73180091381073 0.025912299752235413 2.194582536529932e-11 5.042832817991894e-10 -1.0974185449263985e-10 2.2216696739196777 -0.7334870100021362 -0.2089199721813202 -5.0888872109300376e-14 2.417221425191768e-13 6.997219915028802e-14 -74.38599395751953 33.03009796142578 -7.264049053192139 17.53460121154785 -10.194899559020996 -32.984195709228516 0.08833768218755722 8.44789981842041 -1.1960397958755493 6.013283759820354e-10 2.0507198161823226e-09 9.883318607961655e-10 1.049595743651821e-09 3.554905703140321e-09 1.7062020685187917e-09 6.013283759820354e-10 2.050706937595237e-09 9.883446283609487e-10 -7.7309088706970215 5.474880218505859 -0.41731396317481995 6.013410880356673e-10 2.0507198161823226e-09 9.883381890674059e-10 -2.9055399894714355 0.9651829600334167 -0.10290198773145676 6.013283759820354e-10 2.0507198161823226e-09 9.883318607961655e-10 -10.27859878540039 0.73180091381073 -0.025912299752235413 6.013410880356673e-10 2.0507198161823226e-09 9.883255325249252e-10 -2.2216696739196777 -0.7334870100021362 0.2089199721813202 -0.0 0.0 -0.0 -34.6223030090332 -63.112098693847656 -30.848697662353516 -2.0246400833129883 70.29810333251953 2.65762996673584 2.6802196502685547 -7.078449726104736 14.307099342346191 -0.0 0.0 -0.0 4.687569618225098 8.104100227355957 3.5424699783325195 -0.056237515062093735 35.977500915527344 -2.322969913482666 23.666696548461914 -21.111501693725586 42.182498931884766
